<?xml version="1.0" encoding="UTF-8"?>
<svg width="752pt" height="752pt" version="1.1" viewBox="0 0 752 752" xmlns="http://www.w3.org/2000/svg">
 <path d="m278.21 479.43h195.64c27.469 0 53.469-10.844 72.98-30.355 19.605-19.605 30.453-45.605 30.453-73.121 0-57.02-46.457-103.43-103.43-103.43h-195.64c-27.609 0-53.516 10.75-73.121 30.355-19.605 19.609-30.355 45.559-30.355 73.074 0 57.02 46.363 103.48 103.48 103.48zm131.46-103.48c0-33.859 27.516-61.375 61.473-61.375 33.859 0 61.375 27.516 61.375 61.375s-27.516 61.473-61.375 61.473c-33.957 0-61.473-27.609-61.473-61.473z"/>
</svg>
