<?xml version="1.0" encoding="UTF-8"?>
<svg width="752pt" height="752pt" version="1.1" viewBox="0 0 752 752" xmlns="http://www.w3.org/2000/svg">
 <g>
  <path d="m350.86 376c0 38.633-31.316 69.949-69.949 69.949s-69.949-31.316-69.949-69.949c0-38.629 31.316-69.945 69.949-69.945s69.949 31.316 69.949 69.945"/>
  <path d="m473.8 479.48h-195.59c-57.066 0-103.48-46.414-103.48-103.48s46.41-103.48 103.48-103.48h195.59c57.066 0 103.48 46.41 103.48 103.48s-46.41 103.48-103.48 103.48zm-195.59-189.91c-47.641 0-86.43 38.785-86.43 86.426s38.785 86.43 86.43 86.43h195.59c47.641 0 86.43-38.785 86.43-86.43 0-47.641-38.785-86.43-86.43-86.43z"/>
 </g>
</svg>
